<?xml version="1.0" encoding="UTF-8"?>
<!-- Generator: Adobe Illustrator 23.1.1, SVG Export Plug-In . SVG Version: 6.00 Build 0)  -->
<svg version="1.1" id="Layer_1" xmlns="http://www.w3.org/2000/svg" xmlns:xlink="http://www.w3.org/1999/xlink" x="0px" y="0px" viewBox="0 0 1319.1 506.6" style="enable-background:new 0 0 1319.1 506.6;" xml:space="preserve">
<style type="text/css">
	.st0{fill:none;}
	.st1{fill:none;stroke:#000000;stroke-linecap:round;stroke-linejoin:round;}
	.st2{opacity:0.5;}
	.st3{fill:url(#Wave_Pattern_-_1_2_);}
	.st4{opacity:0.5;fill:url(#Dot_Pattern_-_1_2_);}
</style>
<pattern y="506.6" width="389" height="387.4" patternUnits="userSpaceOnUse" id="Dot_Pattern_-_1_1_" viewBox="389.5 -469.1 389 387.4" style="overflow:visible;">
	<g>
		<rect x="389.5" y="-469.1" class="st0" width="389" height="387.4"/>
		<g>
			<rect x="389.5" y="-469.1" class="st0" width="389" height="387.4"/>
			<rect x="389.5" y="-469.1" class="st0" width="389" height="387.4"/>
			<path class="st1" d="M778.5-49.9c9.4-11.1,99-107.8,206.8,0s176.8,6.6,182.2,0"/>
			<path class="st1" d="M389.5-49.9c9.4-11.1,99-107.8,206.8,0s176.8,6.6,182.2,0"/>
			<path class="st1" d="M0.5-49.9c9.4-11.1,99-107.8,206.8,0s176.8,6.6,182.2,0"/>
			<path class="st1" d="M778.5-113.5c9.4-11.1,99-107.8,206.8,0s176.8,6.6,182.2,0"/>
			<path class="st1" d="M778.5-146.8c9.4-11.1,99-107.8,206.8,0s176.8,6.6,182.2,0"/>
			<path class="st1" d="M778.5-83.2c9.4-11.1,99-107.8,206.8,0s176.8,6.6,182.2,0"/>
			<path class="st1" d="M389.5-113.5c9.4-11.1,99-107.8,206.8,0s176.8,6.6,182.2,0"/>
			<path class="st1" d="M389.5-146.8c9.4-11.1,99-107.8,206.8,0s176.8,6.6,182.2,0"/>
			<path class="st1" d="M389.5-83.2c9.4-11.1,99-107.8,206.8,0s176.8,6.6,182.2,0"/>
			<path class="st1" d="M0.5-113.5c9.4-11.1,99-107.8,206.8,0s176.8,6.6,182.2,0"/>
			<path class="st1" d="M0.5-146.8c9.4-11.1,99-107.8,206.8,0s176.8,6.7,182.2,0"/>
			<path class="st1" d="M0.5-83.2c9.4-11.1,99-107.8,206.8,0s176.8,6.6,182.2,0"/>
			<path class="st1" d="M778.5-210.4c9.4-11.1,99-107.8,206.8,0s176.8,6.6,182.2,0"/>
			<path class="st1" d="M778.5-243.6c9.4-11.1,99-107.8,206.8,0s176.8,6.6,182.2,0"/>
			<path class="st1" d="M778.5-180.1c9.4-11.1,99-107.8,206.8,0s176.8,6.6,182.2,0"/>
			<path class="st1" d="M389.5-210.4c9.4-11.1,99-107.8,206.8,0s176.8,6.6,182.2,0"/>
			<path class="st1" d="M389.5-243.6c9.4-11.1,99-107.8,206.8,0s176.8,6.6,182.2,0"/>
			<path class="st1" d="M389.5-180.1c9.4-11.1,99-107.8,206.8,0s176.8,6.6,182.2,0"/>
			<path class="st1" d="M0.5-210.4c9.4-11.1,99-107.8,206.8,0s176.8,6.6,182.2,0"/>
			<path class="st1" d="M0.5-243.6c9.4-11.1,99-107.8,206.8,0s176.8,6.6,182.2,0"/>
			<path class="st1" d="M0.5-180.1c9.4-11.1,99-107.8,206.8,0s176.8,6.6,182.2,0"/>
			<path class="st1" d="M778.5-307.2c9.4-11.1,99-107.8,206.8,0s176.8,6.6,182.2,0"/>
			<path class="st1" d="M778.5-340.5c9.4-11.1,99-107.8,206.8,0s176.8,6.6,182.2,0"/>
			<path class="st1" d="M778.5-276.9c9.4-11.1,99-107.8,206.8,0s176.8,6.6,182.2,0"/>
			<path class="st1" d="M389.5-307.2c9.4-11.1,99-107.8,206.8,0s176.8,6.6,182.2,0"/>
			<path class="st1" d="M389.5-340.5c9.4-11.1,99-107.8,206.8,0s176.8,6.6,182.2,0"/>
			<path class="st1" d="M389.5-276.9c9.4-11.1,99-107.8,206.8,0s176.8,6.6,182.2,0"/>
			<path class="st1" d="M0.5-307.2c9.4-11.1,99-107.8,206.8,0s176.8,6.6,182.2,0"/>
			<path class="st1" d="M0.5-340.5c9.4-11.1,99-107.8,206.8,0s176.8,6.6,182.2,0"/>
			<path class="st1" d="M0.5-276.9c9.4-11.1,99-107.8,206.8,0s176.8,6.6,182.2,0"/>
			<path class="st1" d="M778.5-404.1c9.4-11.1,99-107.8,206.8,0s176.8,6.6,182.2,0"/>
			<path class="st1" d="M778.5-437.3c9.4-11.1,99-107.8,206.8,0s176.8,6.6,182.2,0"/>
			<path class="st1" d="M778.5-373.8c9.4-11.2,99-107.8,206.8,0s176.8,6.6,182.2,0"/>
			<path class="st1" d="M389.5-404.1c9.4-11.1,99-107.8,206.8,0s176.8,6.6,182.2,0"/>
			<path class="st1" d="M389.5-437.3c9.4-11.1,99-107.8,206.8,0s176.8,6.6,182.2,0"/>
			<path class="st1" d="M389.5-373.8c9.4-11.2,99-107.8,206.8,0s176.8,6.6,182.2,0"/>
			<path class="st1" d="M0.5-404.1c9.4-11.1,99-107.8,206.8,0s176.8,6.6,182.2,0"/>
			<path class="st1" d="M0.5-437.3c9.4-11.1,99-107.8,206.8,0s176.8,6.6,182.2,0"/>
			<path class="st1" d="M0.5-373.8c9.4-11.2,99-107.8,206.8,0s176.8,6.6,182.2,0"/>
			<path class="st1" d="M778.5-500.9c9.4-11.1,99-107.8,206.8,0s176.8,6.6,182.2,0"/>
			<path class="st1" d="M778.5-470.6c9.4-11.2,99-107.8,206.8,0s176.8,6.6,182.2,0"/>
			<path class="st1" d="M389.5-500.9c9.4-11.1,99-107.8,206.8,0s176.8,6.6,182.2,0"/>
			<path class="st1" d="M389.5-470.6c9.4-11.2,99-107.8,206.8,0s176.8,6.6,182.2,0"/>
			<path class="st1" d="M0.5-500.9c9.4-11.1,99-107.8,206.8,0s176.8,6.6,182.2,0"/>
			<path class="st1" d="M0.5-470.6c9.4-11.2,99-107.8,206.8,0s176.8,6.6,182.2,0"/>
		</g>
	</g>
</pattern>
<pattern y="506.6" width="7" height="7" patternUnits="userSpaceOnUse" id="Wave_Pattern_-_1_1_" viewBox="0 -7 7 7" style="overflow:visible;">
	<g>
		<rect y="-7" class="st0" width="7" height="7"/>
		<g>
			<rect y="-7" class="st0" width="7" height="7"/>
			<rect y="-7" class="st0" width="7" height="7"/>
			<circle cx="3.5" cy="-3.5" r="1.4"/>
		</g>
	</g>
</pattern>
<title>dot-wave-sec-1</title>
<g id="Hero" class="st2">
	
		<pattern id="Wave_Pattern_-_1_2_" xlink:href="#Wave_Pattern_-_1_1_" patternTransform="matrix(1 0 0 1 -3 17294.5469)" class="st2">
	</pattern>
	<path id="Wave_Pattern_-_1" class="st3" d="M25.1,170.4l1254.3,254.8c17,3.5,33.5-7.5,37-24.4c0.4-1.9,0.6-3.9,0.6-5.9l2.1-194.8   c0.2-15.8-11.4-29.2-27-31.4L75.9,0.3c-14.6-2-28.6,6.4-33.7,20.1L2,128.8c-6,16.2,2.2,34.3,18.5,40.3   C22,169.7,23.5,170.1,25.1,170.4z"/>
</g>
<pattern id="Dot_Pattern_-_1_2_" xlink:href="#Dot_Pattern_-_1_1_" patternTransform="matrix(0.9733 -0.2297 0.2297 0.9733 -715.965 17649.2422)">
</pattern>
<path id="Dot_Pattern_-_1" class="st4" d="M323.6,445.9l458.6,61.5c24.2,3.2,48.7,2.4,72.6-2.5l384.2-90.1  c41.2-9.7,66.6-51,56.6-92.1l-23.4-96.4c-8.5-34.9-40.1-59.1-76-58.2L252,193c-37.1,1.2-66.2,32.2-65.1,69.3c0.1,4.7,0.8,9.4,1.9,14  l15.5,62.6C218.3,395.7,265.7,438.2,323.6,445.9z"/>
</svg>